<?xml version="1.0" encoding="utf-8"?>
<!-- Generator: Adobe Illustrator 27.3.1, SVG Export Plug-In . SVG Version: 6.00 Build 0)  -->
<svg version="1.1" id="Layer_1" xmlns:sketch="http://www.bohemiancoding.com/sketch/ns"
	 xmlns="http://www.w3.org/2000/svg" xmlns:xlink="http://www.w3.org/1999/xlink" x="0px" y="0px" viewBox="0 0 800 800"
	 style="enable-background:new 0 0 800 800;" xml:space="preserve">
<style type="text/css">
	.st0{fill-rule:evenodd;clip-rule:evenodd;fill:#2AC30D;}
</style>
<g id="Page-1" sketch:type="MSPage">
	<g id="Icon-Set" transform="translate(-257.000000, -255.000000)" sketch:type="MSLayerGroup">
		<path id="comments" sketch:type="MSShapeGroup" class="st0" d="M319.5,542.5c0-131.2,118.8-237.5,275-237.5
			c124.3,0,250,106.3,250,237.5c0,131.2-98.1,237.5-250,237.5c-22.3,0-68.9-2.5-89.7-6.9L419.5,830v-88.6
			C358.5,691.9,319.5,625.9,319.5,542.5L319.5,542.5z M510.4,823.4c19.4,3.2,63.6,6.6,84.1,6.6c179.5,0,300-133.6,300-290.6
			S743.9,255,594.5,255c-179.7,0-325,127.3-325,284.4c0,91,34.7,168.2,100,223.9V905L510.4,823.4L510.4,823.4z M943.2,483.5
			c0.5,7.1,1.3,14.3,1.3,21.5c0,15.9-1.6,31.5-3.8,46.8c33.7,39.4,53.8,88,53.8,140.7c0,83.4-49.8,156.5-125,198.9V980l-85.3-56.9
			c-20.8,4.3-42.4,6.9-64.7,6.9c-64.7,0-99.2-19.5-146.2-51.8c-13.6,1.1-27.4,1.8-41.3,1.8c-10,0-19.7-0.7-29.5-1.3
			c59.5,58.2,120.7,95,217,95c20.5,0,40.5-1.9,59.9-5l140.1,86.3V913.2c76-52.1,125-132.8,125-223.9
			C1044.5,608.3,1005.5,535.3,943.2,483.5L943.2,483.5z M732,580c20.7,0,37.5-16.8,37.5-37.5c0-20.7-16.8-37.5-37.5-37.5
			s-37.5,16.8-37.5,37.5C694.5,563.2,711.3,580,732,580L732,580z M432,580c20.7,0,37.5-16.8,37.5-37.5c0-20.7-16.8-37.5-37.5-37.5
			s-37.5,16.8-37.5,37.5C394.5,563.2,411.3,580,432,580L432,580z M582,580c20.7,0,37.5-16.8,37.5-37.5c0-20.7-16.8-37.5-37.5-37.5
			s-37.5,16.8-37.5,37.5C544.5,563.2,561.3,580,582,580L582,580z"/>
	</g>
</g>
</svg>
