<?xml version="1.0" encoding="utf-8"?>
<!-- Generator: Adobe Illustrator 27.3.1, SVG Export Plug-In . SVG Version: 6.00 Build 0)  -->
<svg version="1.1" id="Layer_1" xmlns="http://www.w3.org/2000/svg" xmlns:xlink="http://www.w3.org/1999/xlink" x="0px" y="0px"
	 viewBox="0 0 800 800" style="enable-background:new 0 0 800 800;" xml:space="preserve">
<style type="text/css">
	.st0{fill:#2AC30D;}
</style>
<path class="st0" d="M593.3,666.7H206.7c-41.3,0-64,0-85.4-10.9c-18.9-9.6-34-24.8-43.7-43.7c-10.9-21.4-10.9-44.1-10.9-85.4V273.3
	c0-2.2,0-4.3,0-6.3c0-0.1,0-0.2,0-0.3c0-0.1,0-0.3,0-0.4c0-36.9,0.6-58.2,10.9-78.4c9.7-18.9,24.8-34.1,43.7-43.7
	c21.4-10.9,44.1-10.9,85.4-10.9h386.7c41.3,0,64,0,85.4,10.9c18.9,9.7,34.1,24.8,43.7,43.7c10.3,20.1,10.9,41.5,10.9,78.3
	c0,0.1,0,0.3,0,0.4c0,0.1,0,0.2,0,0.3c0,2.1,0,4.2,0,6.3v253.3c0,41.3,0,64-10.9,85.4c-9.6,18.9-24.8,34.1-43.7,43.7
	C657.3,666.7,634.6,666.7,593.3,666.7z M133.3,400v126.7c0,28.9,0,48,3.6,55.1c3.2,6.3,8.3,11.3,14.6,14.6
	c7.1,3.6,26.2,3.6,55.1,3.6h386.7c28.9,0,48,0,55.1-3.6c6.3-3.2,11.4-8.3,14.6-14.6c3.6-7.1,3.6-26.2,3.6-55.1V400H133.3z
	 M133.3,333.3h533.3V300H133.3V333.3z M134,233.3H666c-0.5-7-1.4-12.1-2.9-15.1c-3.2-6.3-8.3-11.4-14.6-14.6
	c-7.1-3.6-26.2-3.6-55.1-3.6H206.7c-28.9,0-48,0-55.1,3.6c-6.3,3.2-11.4,8.3-14.6,14.6C135.4,221.2,134.6,226.3,134,233.3z
	 M533.3,533.3H400c-18.4,0-33.3-14.9-33.3-33.3s14.9-33.3,33.3-33.3h133.3c18.4,0,33.3,14.9,33.3,33.3S551.7,533.3,533.3,533.3z
	 M266.7,533.3H200c-18.4,0-33.3-14.9-33.3-33.3s14.9-33.3,33.3-33.3h66.7c18.4,0,33.3,14.9,33.3,33.3S285.1,533.3,266.7,533.3z"/>
</svg>
