<?xml version="1.0" encoding="utf-8"?>
<!-- Generator: Adobe Illustrator 27.3.1, SVG Export Plug-In . SVG Version: 6.00 Build 0)  -->
<svg version="1.1" id="Layer_1" xmlns="http://www.w3.org/2000/svg" xmlns:xlink="http://www.w3.org/1999/xlink" x="0px" y="0px"
	 viewBox="0 0 429 275.5" style="enable-background:new 0 0 429 275.5;" xml:space="preserve">
<style type="text/css">
	.st0{fill:#2AC30D;}
</style>
<g id="Layer_1_00000095337488027287746300000014281100261698036399_">
</g>
<g id="Layer_2_00000060012614117718004350000003793018933151976596_">
	<g>
		<path class="st0" d="M380.8,63.7c-2.2-3.1-5.8-5-9.5-5h-72.7V27.8c0-6.4-5.3-11.7-11.7-11.7H23.6c-6.4,0-11.7,5.3-11.7,11.7v189.4
			c0,6.4,5.3,11.7,11.7,11.7h33.1c6.1,21.2,25.8,37,48.9,37s42.8-15.6,48.9-37h129.8c6.1,21.2,25.8,37,48.9,37s42.8-15.6,48.9-37
			h24.2c6.4,0,11.7-5.3,11.7-11.7v-96.4c0-2.5-0.8-4.8-2.2-6.7L380.8,63.7z M394.9,124.1h-52.5V82.2h23L394.9,124.1z M35.3,39.6
			h239.8v165.9H155.7c-4.5-23.6-25.2-41.4-50-41.4s-45.6,17.8-50,41.4H35.4L35.3,39.6L35.3,39.6z M105.7,242.4
			c-15.2,0-27.5-12.3-27.5-27.5s12.3-27.5,27.5-27.5s27.5,12.3,27.5,27.5S120.8,242.4,105.7,242.4z M333.5,242.4
			c-15.2,0-27.5-12.3-27.5-27.5s12.3-27.5,27.5-27.5s27.5,12.3,27.5,27.5S348.6,242.4,333.5,242.4z M383.5,205.5
			c-4.5-23.6-25.2-41.4-50-41.4c-13.4,0-25.8,5.3-34.8,13.9V82.2h20.2v53.6c0,6.4,5.3,11.7,11.7,11.7H395v58L383.5,205.5
			L383.5,205.5z"/>
		<path class="st0" d="M-100.8,39.6h83.6c6.4,0,11.7-5.3,11.7-11.7c0-6.4-5.3-11.7-11.7-11.7h-83.6c-6.4,0-11.7,5.3-11.7,11.7
			C-112.5,34.3-107.2,39.6-100.8,39.6z"/>
		<path class="st0" d="M-17.2,58.8h-64.4c-6.4,0-11.7,5.3-11.7,11.7c0,6.4,5.3,11.7,11.7,11.7h64.4c6.4,0,11.7-5.3,11.7-11.7
			C-5.4,64.1-10.6,58.8-17.2,58.8z"/>
		<path class="st0" d="M-17.2,101.5h-40.6c-6.4,0-11.7,5.3-11.7,11.7s5.3,11.7,11.7,11.7h40.6c6.4,0,11.7-5.3,11.7-11.7
			S-10.6,101.5-17.2,101.5z"/>
		<path class="st0" d="M-17.2,144.1h-14.1c-6.4,0-11.7,5.3-11.7,11.7s5.3,11.7,11.7,11.7h14.1c6.4,0,11.7-5.3,11.7-11.7
			S-10.6,144.1-17.2,144.1z"/>
	</g>
</g>
</svg>
