<?xml version="1.0" encoding="utf-8"?>
<!-- Generator: Adobe Illustrator 27.3.1, SVG Export Plug-In . SVG Version: 6.00 Build 0)  -->
<svg version="1.1" id="Layer_1" xmlns="http://www.w3.org/2000/svg" xmlns:xlink="http://www.w3.org/1999/xlink" x="0px" y="0px"
	 viewBox="0 0 800 800" style="enable-background:new 0 0 800 800;" xml:space="preserve">
<style type="text/css">
	.st0{fill:#2AC30D;}
</style>
<path class="st0" d="M526.7,733.3H273.3c-41.3,0-64,0-85.4-10.9c-18.9-9.6-34-24.8-43.7-43.7c-10.9-21.4-10.9-44.1-10.9-85.4V433
	c-11.5-0.6-20.9-2.2-30.3-7c-12.6-6.4-22.7-16.5-29.1-29.1c-7.3-14.3-7.3-28.6-7.3-50.3v-60c0-21.7,0-36,7.3-50.3
	c6.4-12.6,16.5-22.7,29.1-29.1c14.3-7.3,28.6-7.3,50.3-7.3h35.6c-3.7-10.6-5.6-21.8-5.6-33.3c0-26.6,10.2-51.6,28.7-70.5
	c18.4-18.7,44-29.5,70.1-29.5c33.7,0,80.9,13.4,117.9,75.7c36.9-62.3,84.1-75.7,117.9-75.7c26.1,0,51.7,10.8,70.1,29.5
	c18.5,18.9,28.7,43.9,28.7,70.5c0,11.5-1.9,22.8-5.6,33.3h35.6c21.7,0,36,0,50.3,7.3c12.6,6.4,22.7,16.5,29.1,29.1
	c7.3,14.3,7.3,28.6,7.3,50.3v60c0,21.7,0,36-7.3,50.3c-6.4,12.6-16.5,22.7-29.1,29.1c-9.4,4.8-18.8,6.4-30.3,7v160.3
	c0,41.3,0,64-10.9,85.4c-9.6,18.9-24.8,34.1-43.7,43.7C590.7,733.3,567.9,733.3,526.7,733.3z M433.3,666.7h93.3
	c28.9,0,48,0,55.1-3.6c6.3-3.2,11.3-8.3,14.6-14.6c3.6-7.1,3.6-26.2,3.6-55.1v-160H433.3V666.7z M200,433.3v160
	c0,28.9,0,48,3.6,55.1c3.2,6.3,8.3,11.4,14.6,14.6c7.1,3.6,26.2,3.6,55.1,3.6h93.3V433.3H200z M433.3,366.7h213.3
	c7.7,0,15.6,0,19.6-0.4c0.4-4,0.4-11.9,0.4-19.6v-60c0-7.7,0-15.6-0.4-19.6c-4-0.4-11.9-0.4-19.6-0.4H433.3V366.7z M133.7,366.3
	c4,0.4,11.9,0.4,19.6,0.4h213.3v-100H153.3c-7.7,0-15.6,0-19.6,0.4c-0.4,4-0.4,11.9-0.4,19.6v60
	C133.3,354.4,133.3,362.3,133.7,366.3z M668.3,267.3C668.3,267.3,668.3,267.3,668.3,267.3C668.3,267.3,668.3,267.3,668.3,267.3z
	 M131.7,267.3C131.7,267.3,131.7,267.3,131.7,267.3C131.7,267.3,131.7,267.3,131.7,267.3z M445.5,200h72.3c8.5,0,16.5-3.4,22.5-9.5
	c6.1-6.2,9.6-14.9,9.6-23.8s-3.5-17.6-9.6-23.8c-6-6.2-14-9.5-22.5-9.5c-13.1,0-24.7,4.2-35.6,13c-10.1,8.1-19.4,19.9-27.7,35
	C451.1,187.6,448.1,193.9,445.5,200z M282.1,200h72.3c-2.6-6.1-5.5-12.4-9-18.7c-8.3-15.2-17.7-26.9-27.7-35
	c-10.9-8.7-22.5-13-35.6-13c-8.5,0-16.5,3.4-22.5,9.6c-6.1,6.2-9.6,14.9-9.6,23.8c0,8.9,3.5,17.6,9.6,23.8
	C265.7,196.6,273.7,200,282.1,200z"/>
</svg>
