<?xml version="1.0" encoding="UTF-8"?>
<svg id="Layer_1" data-name="Layer 1" xmlns="http://www.w3.org/2000/svg" viewBox="0 0 342.35 68.63">
  <defs>
    <style>
      .cls-1 {
        fill: #fff;
      }

      .cls-2 {
        fill: #2ac30d;
      }

      .cls-3 {
        isolation: isolate;
      }
    </style>
  </defs>
  <g class="cls-3">
    <g class="cls-3">
      <path class="cls-2" d="m17.93,2.81c6.21,0,10.92,1.19,14.13,3.57,3.21,2.38,4.82,5.87,4.82,10.46,0,2.51-.65,4.72-1.93,6.63-1.29,1.91-3.08,3.31-5.38,4.2,2.62.66,4.69,1.98,6.21,3.97,1.51,1.99,2.27,4.43,2.27,7.31,0,4.92-1.57,8.65-4.71,11.18-3.14,2.53-7.62,3.82-13.43,3.87H0V2.81h17.93Zm-7.38,21.45h7.8c5.32-.09,7.98-2.21,7.98-6.36,0-2.32-.67-3.99-2.02-5.01-1.35-1.02-3.48-1.53-6.38-1.53h-7.38v12.9Zm0,21.27h9.04c2.48,0,4.42-.59,5.82-1.78,1.39-1.18,2.09-2.82,2.09-4.9,0-4.69-2.43-7.07-7.28-7.14h-9.67v13.82Z"/>
      <path class="cls-2" d="m43.7,35.09v-.46c0-3.77.73-7.14,2.18-10.09,1.45-2.95,3.54-5.24,6.28-6.86,2.73-1.62,5.9-2.43,9.51-2.43,5.13,0,9.32,1.57,12.57,4.71,3.25,3.14,5.06,7.41,5.43,12.8l.07,2.6c0,5.84-1.63,10.52-4.89,14.04-3.26,3.53-7.63,5.29-13.11,5.29s-9.86-1.76-13.13-5.27-4.9-8.3-4.9-14.34Zm12.2,8.54c1.36,1.92,3.3,2.88,5.84,2.88s4.38-.94,5.77-2.83c1.38-1.89,2.07-4.9,2.07-9.05,0-3.54-.69-6.28-2.07-8.23-1.38-1.95-3.33-2.92-5.84-2.92s-4.41.97-5.77,2.9c-1.36,1.93-2.04,4.93-2.04,8.98,0,3.61.68,6.36,2.04,8.26Z"/>
      <path class="cls-2" d="m84.41,35.09v-.46c0-3.77.73-7.14,2.18-10.09,1.45-2.95,3.54-5.24,6.28-6.86,2.73-1.62,5.9-2.43,9.51-2.43,5.13,0,9.32,1.57,12.57,4.71,3.25,3.14,5.06,7.41,5.43,12.8l.07,2.6c0,5.84-1.63,10.52-4.89,14.04-3.26,3.53-7.63,5.29-13.11,5.29s-9.86-1.76-13.13-5.27-4.9-8.3-4.9-14.34Zm12.2,8.54c1.36,1.92,3.3,2.88,5.84,2.88s4.38-.94,5.77-2.83c1.38-1.89,2.07-4.9,2.07-9.05,0-3.54-.69-6.28-2.07-8.23-1.38-1.95-3.33-2.92-5.84-2.92s-4.41.97-5.77,2.9c-1.36,1.93-2.04,4.93-2.04,8.98,0,3.61.68,6.36,2.04,8.26Z"/>
      <path class="cls-2" d="m126.7,54V0h10.16v29.92l1.97-2.53,9.74-11.43h12.2l-13.75,15.86,14.94,22.18h-11.67l-9.77-15.26-3.66,3.66v11.6h-10.16Z"/>
    </g>
    <g class="cls-3">
      <path class="cls-1" d="m162.67,11.36V2.81h41.7v8.54h-15.68v42.65h-10.55V11.36h-15.47Z"/>
      <path class="cls-1" d="m208.12,35.09v-.46c0-3.77.73-7.14,2.18-10.09,1.45-2.95,3.54-5.24,6.28-6.86,2.73-1.62,5.9-2.43,9.51-2.43,5.13,0,9.32,1.57,12.57,4.71,3.25,3.14,5.06,7.41,5.43,12.8l.07,2.6c0,5.84-1.63,10.52-4.89,14.04-3.26,3.53-7.63,5.29-13.11,5.29s-9.86-1.76-13.13-5.27-4.9-8.3-4.9-14.34Zm12.2,8.54c1.36,1.92,3.3,2.88,5.84,2.88s4.38-.94,5.77-2.83c1.38-1.89,2.07-4.9,2.07-9.05,0-3.54-.69-6.28-2.07-8.23-1.38-1.95-3.33-2.92-5.84-2.92s-4.41.97-5.77,2.9c-1.36,1.93-2.04,4.93-2.04,8.98,0,3.61.68,6.36,2.04,8.26Z"/>
      <path class="cls-1" d="m250.42,68.63V15.96h9.42l.35,3.73c2.46-2.95,5.67-4.43,9.63-4.43,4.69,0,8.33,1.73,10.93,5.2s3.9,8.25,3.9,14.34v.53c0,5.86-1.33,10.55-3.99,14.08-2.66,3.53-6.25,5.29-10.78,5.29-3.84,0-6.95-1.34-9.32-4.01v17.93h-10.16Zm10.16-25.88c1.24,2.51,3.46,3.76,6.64,3.76,4.85,0,7.28-3.97,7.28-11.92,0-3.54-.63-6.27-1.88-8.19-1.25-1.92-3.08-2.88-5.47-2.88-3.19,0-5.38,1.22-6.57,3.66v15.57Z"/>
      <path class="cls-1" d="m290.88,6.12c0-1.52.51-2.78,1.53-3.76s2.41-1.48,4.17-1.48,3.12.49,4.15,1.48c1.03.98,1.55,2.24,1.55,3.76s-.52,2.81-1.56,3.8c-1.04.98-2.42,1.48-4.13,1.48s-3.09-.49-4.13-1.48c-1.04-.98-1.56-2.25-1.56-3.8Zm.6,47.88V15.96h10.2v38.04h-10.2Z"/>
      <path class="cls-1" d="m313.03,34.03c2.98-2.16,7.29-3.25,12.94-3.27h4.68v-2.18c0-1.76-.45-3.16-1.35-4.22-.9-1.05-2.33-1.58-4.27-1.58-1.71,0-3.05.41-4.03,1.23-.97.82-1.46,1.95-1.46,3.38h-10.16c0-2.2.68-4.24,2.04-6.12,1.36-1.88,3.28-3.35,5.77-4.41,2.48-1.07,5.27-1.6,8.37-1.6,4.69,0,8.41,1.18,11.16,3.53,2.75,2.36,4.13,5.67,4.13,9.93v16.49c.02,3.61.53,6.34,1.51,8.19v.6h-10.27c-.47-.91-.81-2.05-1.02-3.41-2.46,2.74-5.66,4.11-9.6,4.11-3.73,0-6.82-1.08-9.26-3.23-2.45-2.16-3.67-4.88-3.67-8.16,0-4.03,1.5-7.12,4.5-9.28Zm7,11.67c.89.82,2.11,1.23,3.66,1.23s2.88-.33,4.15-1,2.2-1.56,2.81-2.69v-6.54h-3.8c-5.09,0-7.79,1.76-8.12,5.27l-.04.6c0,1.27.44,2.31,1.34,3.13Z"/>
    </g>
  </g>
</svg>